# xmcd
#
# Track frame offsets:
#	150
#	10812
#	20248
#	39901
#	56126
#	70033
#	81693
#	97831
#	119673
#	132422
#	147640
#	160603
#	173550
#	183260
#	203225
#	222919
#
# Disc length: 3170 seconds
#
# Revision: 0
# Processed by: cddbd v1.5.2PL0 Copyright (c) Steve Scherf et al.
# Submitted via: SynApp - FreeCDDB Version: 2.3
#
DISCID=e60c6010
DTITLE=Willie Nelson - 16 Biggest Hits
DYEAR=1998
DGENRE=Country
TTITLE0=Blue Eyes Crying In The Rain
TTITLE1=If You've Got The Money, I've got the time
TTITLE2=Georgia On My Mind
TTITLE3=Blue Skies
TTITLE4=My Heroes Have Always Been Cowboys
TTITLE5=On The Road Again
TTITLE6=Always On My Mind
TTITLE7=City Of New Orleans
TTITLE8=Forgiving You Was Easy
TTITLE9=Living In The Promiseland
TTITLE10=Midnight Rider
TTITLE11=Remember Me (When The Candle Lights are gleaming)
TTITLE12=Uncloudy Day
TTITLE13=Angel Flying Too Close To The ground
TTITLE14=The Last Thing I Needed First thing this morning
TTITLE15=Nothing I Can Do About It Now
EXTD=
EXTT0=
EXTT1=
EXTT2=
EXTT3=
EXTT4=
EXTT5=
EXTT6=
EXTT7=
EXTT8=
EXTT9=
EXTT10=
EXTT11=
EXTT12=
EXTT13=
EXTT14=
EXTT15=
PLAYORDER=
